<svg width="20" height="14" viewBox="0 0 20 14" fill="none" xmlns="http://www.w3.org/2000/svg">
<path fill-rule="evenodd" clip-rule="evenodd" d="M19.8651 2.03301C19.8651 1.39996 19.3876 0.88678 18.7985 0.88678H17.7318C17.1427 0.88678 16.6651 1.39996 16.6651 2.03301V11.967C16.6651 12.6 17.1427 13.1132 17.7318 13.1132H18.7985C19.3876 13.1132 19.8651 12.6 19.8651 11.967V2.03301ZM12.431 3.33206H13.4977C14.0868 3.33206 14.5644 3.85756 14.5644 4.5058V11.9395C14.5644 12.5877 14.0868 13.1132 13.4977 13.1132H12.431C11.8419 13.1132 11.3644 12.5877 11.3644 11.9395V4.5058C11.3644 3.85756 11.8419 3.33206 12.431 3.33206ZM8.09926 5.98111H7.03259C6.44349 5.98111 5.96593 6.5133 5.96593 7.16979V11.9245C5.96593 12.581 6.44349 13.1132 7.03259 13.1132H8.09926C8.68836 13.1132 9.16593 12.581 9.16593 11.9245V7.16979C9.16593 6.5133 8.68836 5.98111 8.09926 5.98111ZM2.79848 8.4264H1.73181C1.14271 8.4264 0.665146 8.95099 0.665146 9.5981V11.9415C0.665146 12.5886 1.14271 13.1132 1.73181 13.1132H2.79848C3.38758 13.1132 3.86515 12.5886 3.86515 11.9415V9.5981C3.86515 8.95099 3.38758 8.4264 2.79848 8.4264Z" fill="black"/>
</svg>
