<svg width="32" height="33" viewBox="0 0 32 33" fill="none" xmlns="http://www.w3.org/2000/svg">
<path d="M2.41625 9.23034L15.875 16.5949L29.3337 9.23034M15.875 31.2803V16.5803M29.75 22.4137V10.747C29.7494 10.2355 29.6067 9.73319 29.3361 9.29037C29.0655 8.84755 28.6766 8.47983 28.2083 8.22409L17.4167 2.39076C16.9479 2.13477 16.4162 2 15.875 2C15.3338 2 14.8021 2.13477 14.3333 2.39076L3.54167 8.22409C3.0734 8.47983 2.68447 8.84755 2.41388 9.29037C2.14329 9.73319 2.00055 10.2355 2 10.747V22.4137C2.00055 22.9252 2.14329 23.4275 2.41388 23.8703C2.68447 24.3131 3.0734 24.6809 3.54167 24.9366L14.3333 30.7699C14.8021 31.0259 15.3338 31.1607 15.875 31.1607C16.4162 31.1607 16.9479 31.0259 17.4167 30.7699L28.2083 24.9366C28.6766 24.6809 29.0655 24.3131 29.3361 23.8703C29.6067 23.4275 29.7494 22.9252 29.75 22.4137Z" stroke="white" stroke-width="3" stroke-linecap="round" stroke-linejoin="round"/>
</svg>
