<svg width="48" height="44" viewBox="0 0 48 44" fill="none" xmlns="http://www.w3.org/2000/svg">
<path d="M8 34.8333V31.1667H12V18.3333C12 15.7972 12.8333 13.5514 14.5 11.5958C16.1667 9.60971 18.3333 8.3111 21 7.69999V6.41666C21 5.65277 21.2833 5.0111 21.85 4.49165C22.45 3.94166 23.1667 3.66666 24 3.66666C24.8333 3.66666 25.5333 3.94166 26.1 4.49165C26.7 5.0111 27 5.65277 27 6.41666V7.69999C29.6667 8.3111 31.8333 9.60971 33.5 11.5958C35.1667 13.5514 36 15.7972 36 18.3333V31.1667H40V34.8333H8ZM24 40.3333C22.9 40.3333 21.95 39.9819 21.15 39.2792C20.3833 38.5458 20 37.675 20 36.6667H28C28 37.675 27.6 38.5458 26.8 39.2792C26.0333 39.9819 25.1 40.3333 24 40.3333ZM16 31.1667H32V18.3333C32 16.3167 31.2167 14.5903 29.65 13.1542C28.0833 11.718 26.2 11 24 11C21.8 11 19.9167 11.718 18.35 13.1542C16.7833 14.5903 16 16.3167 16 18.3333V31.1667Z" fill="#5D3A9B"/>
</svg>
